<svg width="408.28001708984374px" height="112.4375px" xmlns="http://www.w3.org/2000/svg" viewBox="45.85999145507813 18.78125 408.28001708984374 112.4375" style="background: rgba(0, 0, 0, 0);" preserveAspectRatio="xMidYMid"><defs><filter id="editing-extrusion" x="-100%" y="-100%" width="300%" height="300%"><feFlood result="color1" flood-color="#444"></feFlood><feConvolveMatrix order="5,5" divisor="1" kernelMatrix="1 0 0 0 0 0 1 0 0 0 0 0 1 0 0 0 0 0 1 0 0 0 0 0 1" in="SourceAlpha" result="extrude"></feConvolveMatrix><feComposite in="color1" in2="extrude" result="comp-extrude" operator="in"></feComposite><feOffset dx="2.5" dy="2.5" in="comp-extrude" result="offset-extrude"></feOffset><feMerge><feMergeNode in="offset-extrude"></feMergeNode><feMergeNode in="SourceGraphic"></feMergeNode></feMerge></filter></defs><g filter="url(#editing-extrusion)"><g transform="translate(106.77125072479248, 99.03499984741211)"><path d="M15.94-2.11L2.62 0.26L7.49-45.18L7.49-45.18Q10.50-45.31 13.15-45.79L13.15-45.79L13.15-45.79Q15.81-46.27 18.43-46.46L18.43-46.46L18.43-46.46Q18.43-46.40 18.24-45.15L18.24-45.15L18.24-45.15Q18.05-43.90 17.73-41.89L17.73-41.89L17.73-41.89Q17.41-39.87 17.02-37.34L17.02-37.34L17.02-37.34Q16.64-34.82 15.90-30.40L15.90-30.40L15.90-30.40Q15.17-25.98 13.95-18.18L13.95-18.18L14.91-18.18L14.91-18.18Q16.58-24.06 17.66-27.81L17.66-27.81L17.66-27.81Q18.75-31.55 19.42-33.89L19.42-33.89L19.42-33.89Q20.10-36.22 20.70-38.40L20.70-38.40L20.70-38.40Q21.31-40.58 21.86-42.43L21.86-42.43L21.86-42.43Q22.40-44.29 22.72-45.57L22.72-45.57L23.30-45.57L23.30-45.57Q24.45-45.57 25.63-45.70L25.63-45.70L25.63-45.70Q26.82-45.82 27.87-45.98L27.87-45.98L27.87-45.98Q28.93-46.14 30.08-46.40L30.08-46.40L30.08-46.40Q29.95-45.82 29.79-44.03L29.79-44.03L29.79-44.03Q29.63-42.24 29.38-39.71L29.38-39.71L29.38-39.71Q29.12-37.18 28.86-34.14L28.86-34.14L28.86-34.14Q28.61-31.10 28.35-28.19L28.35-28.19L28.35-28.19Q28.10-25.28 27.87-22.66L27.87-22.66L27.87-22.66Q27.65-20.03 27.46-18.18L27.46-18.18L28.61-18.18L34.69-45.70L34.69-45.70Q36.86-46.02 38.98-46.27L38.98-46.27L38.98-46.27Q40.83-46.53 42.82-46.78L42.82-46.78L42.82-46.78Q44.80-47.04 46.34-47.36L46.34-47.36L46.34-47.36Q45.38-44.67 44.42-41.38L44.42-41.38L44.42-41.38Q43.46-38.08 42.43-34.43L42.43-34.43L42.43-34.43Q41.41-30.78 40.48-27.07L40.48-27.07L40.48-27.07Q39.55-23.36 38.66-19.90L38.66-19.90L38.66-19.90Q36.61-11.71 34.69-3.07L34.69-3.07L20.22-0.64L23.04-25.34L22.27-25.34L15.94-2.11ZM59.65-3.14L38.98 0.06L47.36-45.44L67.58-47.17L67.58-47.17Q67.14-45.76 66.82-44.29L66.82-44.29L66.82-44.29Q66.50-43.07 66.21-41.76L66.21-41.76L66.21-41.76Q65.92-40.45 65.73-39.42L65.73-39.42L65.73-39.42Q65.09-39.36 63.90-39.33L63.90-39.33L63.90-39.33Q62.72-39.30 61.38-39.26L61.38-39.26L61.38-39.26Q60.03-39.23 58.66-39.23L58.66-39.23L58.66-39.23Q57.28-39.23 56.26-39.23L56.26-39.23L54.02-27.78L54.02-27.78Q56-27.90 57.73-27.97L57.73-27.97L57.73-27.97Q59.14-28.03 60.61-28.03L60.61-28.03L60.61-28.03Q62.08-28.03 62.78-28.10L62.78-28.10L62.78-28.10Q62.53-26.30 62.30-24.58L62.30-24.58L62.30-24.58Q62.08-22.85 61.76-21.06L61.76-21.06L61.76-21.06Q61.12-20.99 59.68-20.96L59.68-20.96L59.68-20.96Q58.24-20.93 56.77-20.86L56.77-20.86L56.77-20.86Q55.10-20.80 53.12-20.74L53.12-20.74L50.94-8.96L60.29-10.43L59.65-3.14ZM81.47-3.14L60.80 0.06L69.18-45.44L89.41-47.17L89.41-47.17Q88.96-45.76 88.64-44.29L88.64-44.29L88.64-44.29Q88.32-43.07 88.03-41.76L88.03-41.76L88.03-41.76Q87.74-40.45 87.55-39.42L87.55-39.42L87.55-39.42Q86.91-39.36 85.73-39.33L85.73-39.33L85.73-39.33Q84.54-39.30 83.20-39.26L83.20-39.26L83.20-39.26Q81.86-39.23 80.48-39.23L80.48-39.23L80.48-39.23Q79.10-39.23 78.08-39.23L78.08-39.23L75.84-27.78L75.84-27.78Q77.82-27.90 79.55-27.97L79.55-27.97L79.55-27.97Q80.96-28.03 82.43-28.03L82.43-28.03L82.43-28.03Q83.90-28.03 84.61-28.10L84.61-28.10L84.61-28.10Q84.35-26.30 84.13-24.58L84.13-24.58L84.13-24.58Q83.90-22.85 83.58-21.06L83.58-21.06L83.58-21.06Q82.94-20.99 81.50-20.96L81.50-20.96L81.50-20.96Q80.06-20.93 78.59-20.86L78.59-20.86L78.59-20.86Q76.93-20.80 74.94-20.74L74.94-20.74L72.77-8.96L82.11-10.43L81.47-3.14ZM92.93-1.47L82.56 0.06L82.56 0.06Q84.48-8.90 86.14-17.34L86.14-17.34L86.14-17.34Q86.78-20.99 87.49-24.90L87.49-24.90L87.49-24.90Q88.19-28.80 88.80-32.64L88.80-32.64L88.80-32.64Q89.41-36.48 89.89-40.10L89.89-40.10L89.89-40.10Q90.37-43.71 90.62-46.66L90.62-46.66L90.62-46.66Q92.10-46.53 93.95-46.43L93.95-46.43L93.95-46.43Q95.81-46.34 97.41-46.21L97.41-46.21L97.41-46.21Q99.33-46.08 101.25-46.08L101.25-46.08L101.25-46.08Q101.18-45.82 101.06-45.12L101.06-45.12L101.06-45.12Q100.93-44.42 100.74-43.42L100.74-43.42L100.74-43.42Q100.54-42.43 100.32-41.22L100.32-41.22L100.32-41.22Q100.10-40 99.84-38.78L99.84-38.78L99.84-38.78Q99.33-35.97 98.69-32.45L98.69-32.45L99.07-32.51L99.07-32.51Q99.71-33.54 100.90-35.36L100.90-35.36L100.90-35.36Q102.08-37.18 103.36-39.23L103.36-39.23L103.36-39.23Q104.64-41.28 105.86-43.17L105.86-43.17L105.86-43.17Q107.07-45.06 107.90-46.40L107.90-46.40L107.90-46.40Q111.10-46.66 114.30-46.98L114.30-46.98L114.30-46.98Q117.50-47.30 120.70-47.81L120.70-47.81L120.70-47.81Q117.70-43.78 114.88-39.87L114.88-39.87L114.88-39.87Q113.66-38.21 112.42-36.42L112.42-36.42L112.42-36.42Q111.17-34.62 109.95-32.90L109.95-32.90L109.95-32.90Q108.74-31.17 107.68-29.57L107.68-29.57L107.68-29.57Q106.62-27.97 105.79-26.62L105.79-26.62L105.79-26.62Q107.20-20.16 109.12-14.14L109.12-14.14L109.12-14.14Q111.04-8.13 113.02-1.86L113.02-1.86L113.02-1.86Q111.55-1.92 110.02-1.95L110.02-1.95L110.02-1.95Q108.48-1.98 107.01-1.98L107.01-1.98L107.01-1.98Q105.15-1.98 103.42-1.95L103.42-1.95L103.42-1.95Q101.70-1.92 99.84-1.86L99.84-1.86L99.84-1.86Q99.26-6.02 98.59-10.59L98.59-10.59L98.59-10.59Q97.92-15.17 97.34-19.33L97.34-19.33L96.19-17.98L96.19-17.98Q95.74-16.06 95.20-13.25L95.20-13.25L95.20-13.25Q94.66-10.43 94.14-7.81L94.14-7.81L94.14-7.81Q93.57-4.74 92.93-1.47L92.93-1.47ZM129.34-2.05L129.34-2.05Q127.36-2.05 125.15-1.92L125.15-1.92L125.15-1.92Q122.94-1.79 120.70-1.54L120.70-1.54L120.70-1.54Q118.46-1.28 116.32-0.86L116.32-0.86L116.32-0.86Q114.18-0.45 112.45 0.13L112.45 0.13L112.45 0.13Q112.83-2.75 113.34-6.27L113.34-6.27L113.34-6.27Q113.86-9.79 114.53-13.57L114.53-13.57L114.53-13.57Q115.20-17.34 115.87-21.18L115.87-21.18L115.87-21.18Q116.54-25.02 117.25-28.54L117.25-28.54L117.25-28.54Q118.85-36.93 120.64-45.63L120.64-45.63L131.84-47.10L131.84-47.10Q130.11-39.68 128.51-32.64L128.51-32.64L128.51-32.64Q127.81-29.63 127.10-26.40L127.10-26.40L127.10-26.40Q126.40-23.17 125.76-20.10L125.76-20.10L125.76-20.10Q125.12-17.02 124.61-14.14L124.61-14.14L124.61-14.14Q124.10-11.26 123.78-9.02L123.78-9.02L123.78-9.02Q125.38-9.15 127.20-9.18L127.20-9.18L127.20-9.18Q129.02-9.22 130.43-9.22L130.43-9.22L130.43-9.22Q130.50-8 130.62-6.82L130.62-6.82L130.62-6.82Q130.75-5.63 130.91-4.67L130.91-4.67L130.91-4.67Q131.07-3.71 131.17-2.98L131.17-2.98L131.17-2.98Q131.26-2.24 131.33-1.98L131.33-1.98L131.33-1.98Q130.82-1.98 130.34-2.02L130.34-2.02L130.34-2.02Q129.86-2.05 129.34-2.05L129.34-2.05ZM146.88-2.30L135.94-0.96L138.88-13.82L138.88-13.82Q138.88-16.58 138.78-19.81L138.78-19.81L138.78-19.81Q138.69-23.04 138.50-26.30L138.50-26.30L138.50-26.30Q138.30-29.57 138.11-32.61L138.11-32.61L138.11-32.61Q137.92-35.65 137.79-37.98L137.79-37.98L137.79-37.98Q137.66-40.32 137.54-41.73L137.54-41.73L137.54-41.73Q137.41-43.14 137.41-43.14L137.41-43.14L147.84-47.10L147.84-39.30L147.84-39.30Q147.84-37.70 147.84-36.03L147.84-36.03L147.84-36.03Q147.84-34.37 147.81-32.77L147.81-32.77L147.81-32.77Q147.78-31.17 147.78-29.76L147.78-29.76L147.78-29.76Q147.78-28.35 147.78-27.39L147.78-27.39L147.78-27.39Q148.61-29.57 149.79-32.77L149.79-32.77L149.79-32.77Q150.98-35.97 152.00-38.98L152.00-38.98L152.00-38.98Q153.22-42.50 154.50-46.40L154.50-46.40L164.42-44.16L164.42-44.16Q161.66-38.66 159.04-33.22L159.04-33.22L159.04-33.22Q157.95-30.85 156.74-28.32L156.74-28.32L156.74-28.32Q155.52-25.79 154.30-23.26L154.30-23.26L154.30-23.26Q153.09-20.74 151.94-18.37L151.94-18.37L151.94-18.37Q150.78-16 149.82-13.95L149.82-13.95L149.82-13.95Q149.50-12.29 149.02-10.30L149.02-10.30L149.02-10.30Q148.54-8.32 148.10-6.53L148.10-6.53L148.10-6.53Q147.52-4.42 146.88-2.30L146.88-2.30ZM195.39-13.76L195.39-13.76Q193.86-10.24 191.97-7.65L191.97-7.65L191.97-7.65Q190.08-5.06 188.00-3.30L188.00-3.30L188.00-3.30Q185.92-1.54 183.81-0.70L183.81-0.70L183.81-0.70Q181.70 0.13 179.71 0.13L179.71 0.13L179.71 0.13Q177.73 0.13 176.10-0.77L176.10-0.77L176.10-0.77Q174.46-1.66 173.25-3.46L173.25-3.46L173.25-3.46Q172.03-5.25 171.30-7.87L171.30-7.87L171.30-7.87Q170.56-10.50 170.56-14.02L170.56-14.02L170.56-14.02Q170.56-20.03 172.22-25.89L172.22-25.89L172.22-25.89Q173.89-31.74 176.90-36.42L176.90-36.42L176.90-36.42Q179.90-41.09 184.03-43.94L184.03-43.94L184.03-43.94Q188.16-46.78 193.15-46.78L193.15-46.78L193.15-46.78Q194.69-46.78 196.10-46.14L196.10-46.14L196.10-46.14Q197.50-45.50 198.53-44.35L198.53-44.35L198.53-44.35Q199.55-43.20 200.16-41.54L200.16-41.54L200.16-41.54Q200.77-39.87 200.77-37.82L200.77-37.82L200.77-37.82Q200.77-37.44 200.77-37.02L200.77-37.02L200.77-37.02Q200.77-36.61 200.70-36.16L200.70-36.16L192.32-33.92L192.32-33.92Q191.55-35.52 190.53-35.52L190.53-35.52L190.53-35.52Q189.50-35.52 188.38-34.34L188.38-34.34L188.38-34.34Q187.26-33.15 186.18-31.26L186.18-31.26L186.18-31.26Q185.09-29.38 184.06-27.04L184.06-27.04L184.06-27.04Q183.04-24.70 182.27-22.34L182.27-22.34L182.27-22.34Q181.50-19.97 181.02-17.82L181.02-17.82L181.02-17.82Q180.54-15.68 180.54-14.34L180.54-14.34L180.54-14.34Q180.54-12.29 181.09-11.46L181.09-11.46L181.09-11.46Q181.63-10.62 182.53-10.62L182.53-10.62L182.53-10.62Q183.23-10.62 184.13-11.17L184.13-11.17L184.13-11.17Q185.02-11.71 185.79-12.58L185.79-12.58L185.79-12.58Q186.56-13.44 187.20-14.53L187.20-14.53L187.20-14.53Q187.84-15.62 188.10-16.70L188.10-16.70L195.39-13.76ZM210.50-2.11L197.18 0.26L202.05-45.18L202.05-45.18Q205.06-45.31 207.71-45.79L207.71-45.79L207.71-45.79Q210.37-46.27 212.99-46.46L212.99-46.46L212.99-46.46Q212.99-46.40 212.80-45.15L212.80-45.15L212.80-45.15Q212.61-43.90 212.29-41.89L212.29-41.89L212.29-41.89Q211.97-39.87 211.58-37.34L211.58-37.34L211.58-37.34Q211.20-34.82 210.46-30.40L210.46-30.40L210.46-30.40Q209.73-25.98 208.51-18.18L208.51-18.18L209.47-18.18L209.47-18.18Q211.14-24.06 212.22-27.81L212.22-27.81L212.22-27.81Q213.31-31.55 213.98-33.89L213.98-33.89L213.98-33.89Q214.66-36.22 215.26-38.40L215.26-38.40L215.26-38.40Q215.87-40.58 216.42-42.43L216.42-42.43L216.42-42.43Q216.96-44.29 217.28-45.57L217.28-45.57L217.86-45.57L217.86-45.57Q219.01-45.57 220.19-45.70L220.19-45.70L220.19-45.70Q221.38-45.82 222.43-45.98L222.43-45.98L222.43-45.98Q223.49-46.14 224.64-46.40L224.64-46.40L224.64-46.40Q224.51-45.82 224.35-44.03L224.35-44.03L224.35-44.03Q224.19-42.24 223.94-39.71L223.94-39.71L223.94-39.71Q223.68-37.18 223.42-34.14L223.42-34.14L223.42-34.14Q223.17-31.10 222.91-28.19L222.91-28.19L222.91-28.19Q222.66-25.28 222.43-22.66L222.43-22.66L222.43-22.66Q222.21-20.03 222.02-18.18L222.02-18.18L223.17-18.18L229.25-45.70L229.25-45.70Q231.42-46.02 233.54-46.27L233.54-46.27L233.54-46.27Q235.39-46.53 237.38-46.78L237.38-46.78L237.38-46.78Q239.36-47.04 240.90-47.36L240.90-47.36L240.90-47.36Q239.94-44.67 238.98-41.38L238.98-41.38L238.98-41.38Q238.02-38.08 236.99-34.43L236.99-34.43L236.99-34.43Q235.97-30.78 235.04-27.07L235.04-27.07L235.04-27.07Q234.11-23.36 233.22-19.90L233.22-19.90L233.22-19.90Q231.17-11.71 229.25-3.07L229.25-3.07L214.78-0.64L217.60-25.34L216.83-25.34L210.50-2.11ZM266.62-31.49L266.62-31.49Q266.62-28.03 266.05-24.38L266.05-24.38L266.05-24.38Q265.47-20.74 264.29-17.25L264.29-17.25L264.29-17.25Q263.10-13.76 261.41-10.62L261.41-10.62L261.41-10.62Q259.71-7.49 257.47-5.15L257.47-5.15L257.47-5.15Q255.23-2.82 252.51-1.44L252.51-1.44L252.51-1.44Q249.79-0.06 246.59-0.06L246.59-0.06L246.59-0.06Q243.65-0.06 241.57-1.15L241.57-1.15L241.57-1.15Q239.49-2.24 238.18-4.13L238.18-4.13L238.18-4.13Q236.86-6.02 236.22-8.54L236.22-8.54L236.22-8.54Q235.58-11.07 235.58-14.02L235.58-14.02L235.58-14.02Q235.58-17.41 236.35-21.25L236.35-21.25L236.35-21.25Q237.12-25.09 238.56-28.74L238.56-28.74L238.56-28.74Q240.00-32.38 242.05-35.71L242.05-35.71L242.05-35.71Q244.10-39.04 246.50-41.54L246.50-41.54L246.50-41.54Q248.90-44.03 251.65-45.54L251.65-45.54L251.65-45.54Q254.40-47.04 257.34-47.04L257.34-47.04L257.34-47.04Q259.71-47.04 261.47-45.82L261.47-45.82L261.47-45.82Q263.23-44.61 264.38-42.50L264.38-42.50L264.38-42.50Q265.54-40.38 266.08-37.54L266.08-37.54L266.08-37.54Q266.62-34.69 266.62-31.49L266.62-31.49ZM245.18-16.13L245.18-16.13Q245.18-13.76 245.95-12.29L245.95-12.29L245.95-12.29Q246.72-10.82 248.51-10.82L248.51-10.82L248.51-10.82Q250.88-10.82 252.86-12.42L252.86-12.42L252.86-12.42Q254.85-14.02 256.26-16.42L256.26-16.42L256.26-16.42Q257.66-18.82 258.43-21.66L258.43-21.66L258.43-21.66Q259.20-24.51 259.20-27.07L259.20-27.07L259.20-27.07Q259.20-29.82 258.14-31.74L258.14-31.74L258.14-31.74Q257.09-33.66 254.78-33.66L254.78-33.66L254.78-33.66Q252.93-33.66 251.20-31.90L251.20-31.90L251.20-31.90Q249.47-30.14 248.16-27.49L248.16-27.49L248.16-27.49Q246.85-24.83 246.02-21.76L246.02-21.76L246.02-21.76Q245.18-18.69 245.18-16.13L245.18-16.13ZM273.41-1.09L273.41-1.09Q271.36-0.64 269.18-0.26L269.18-0.26L269.18-0.26Q270.46-6.02 271.68-11.78L271.68-11.78L271.68-11.78Q272.19-14.21 272.74-16.93L272.74-16.93L272.74-16.93Q273.28-19.65 273.82-22.37L273.82-22.37L273.82-22.37Q274.37-25.09 274.88-27.78L274.88-27.78L274.88-27.78Q275.39-30.46 275.78-32.83L275.78-32.83L275.78-32.83Q274.24-32.70 272.77-32.45L272.77-32.45L272.77-32.45Q271.55-32.26 270.24-32.03L270.24-32.03L270.24-32.03Q268.93-31.81 268.03-31.68L268.03-31.68L268.03-31.68Q268.16-32.58 268.42-34.40L268.42-34.40L268.42-34.40Q268.67-36.22 268.99-38.14L268.99-38.14L268.99-38.14Q269.25-40.32 269.63-42.88L269.63-42.88L269.63-42.88Q271.10-43.20 273.73-43.71L273.73-43.71L273.73-43.71Q275.97-44.10 279.68-44.67L279.68-44.67L279.68-44.67Q283.39-45.25 288.90-46.14L288.90-46.14L288.90-46.14Q287.55-40.51 286.43-35.20L286.43-35.20L286.43-35.20Q285.31-29.89 284.32-24.58L284.32-24.58L284.32-24.58Q283.33-19.26 282.40-13.86L282.40-13.86L282.40-13.86Q281.47-8.45 280.58-2.75L280.58-2.75L280.58-2.75Q279.10-2.30 277.18-1.86L277.18-1.86L277.18-1.86Q275.26-1.41 273.41-1.09L273.41-1.09Z" fill="#ccc"></path></g></g><style>text {
  font-size: 64px;
  font-family: Arial Black;
  dominant-baseline: central;
  text-anchor: middle;
}</style></svg>